<svg xmlns="http://www.w3.org/2000/svg" xmlns:xlink="http://www.w3.org/1999/xlink" width="420" height="384" viewBox="0 0 420 384">
  <defs>
    <style>
      .cls-1 {
        clip-path: url(#clip-iPhone_X_XS_11_Pro_1);
      }

      .cls-2 {
        fill: #eff7f9;
      }

      .cls-3 {
        fill: #d4f2f9;
      }

      .cls-4 {
        fill: #112f54;
      }

      .cls-5 {
        fill: #b1e0ef;
      }

      .cls-6 {
        fill: #091e33;
      }

      .cls-14, .cls-7 {
        fill: #fff;
      }

      .cls-14, .cls-8 {
        opacity: 0.3;
      }

      .cls-9 {
        fill: #58a7bf;
      }

      .cls-10 {
        fill: #ff4436;
      }

      .cls-11 {
        fill: #2c649b;
      }

      .cls-12 {
        fill: #77c2e0;
      }

      .cls-13 {
        fill: #508bba;
      }

      .cls-15 {
        fill: #a42c23;
      }

      .cls-16 {
        fill: #d3d3d3;
      }

      .cls-17 {
        fill: #ff6a66;
      }

      .cls-18 {
        fill: #f7f2f2;
      }

      .cls-19 {
        fill: #ffa180;
      }

      .cls-20 {
        fill: #ea886a;
      }

      .cls-21 {
        fill: #ffbba6;
      }

      .cls-22 {
        fill: #e2322d;
      }

      .cls-23 {
        fill: #ddd;
        mix-blend-mode: multiply;
        isolation: isolate;
      }
    </style>
    <clipPath id="clip-iPhone_X_XS_11_Pro_1">
      <rect width="420" height="384"/>
    </clipPath>
  </defs>
  <g id="iPhone_X_XS_11_Pro_1" data-name="iPhone X/XS/11 Pro – 1" class="cls-1">
    <rect class="cls-7" width="420" height="384"/>
    <g id="_2202963" data-name="2202963" transform="translate(-202.66 -91)">
      <g id="Objects" transform="translate(216.617 115.442)">
        <g id="Grupo_57" data-name="Grupo 57">
          <g id="Grupo_56" data-name="Grupo 56">
            <g id="Grupo_42" data-name="Grupo 42">
              <path id="Trazado_6" data-name="Trazado 6" class="cls-2" d="M387.853,392.818c-113.145,49.42-200.267-26.55-144.744-36.258s39.077-37.431,1.394-45.987-35.1-39.934-4.7-41.58,47.229-20.63,21.745-48.476c-26.187-28.614-35.2-59.675,1.655-75.77s53.751,16.2,60.378,48.093c7.092,34.134,20.014,45.36,40.471,24.789s51.824-6.929,35.53,25.2-7.268,61.351,35.822,27.985S490.1,348.158,387.853,392.818Z" transform="translate(-216.617 -100.943)"/>
              <path id="Trazado_7" data-name="Trazado 7" class="cls-2" d="M404.122,214.893c-33.3-42.46-6.415-86.8,3.225-64.476s20.878,12.585,21.31-4.111,15.126-18.815,18.714-6.217,13.9,17.724,24.352,4.18c10.74-13.916,24.208-20.87,35.053-7.042s-2.457,24.222-16.532,30.261c-15.061,6.464-19.03,13.035-7.65,19.524s8.016,21.053-8.3,17.492-28.933,3.214-9.555,17.9S434.208,253.262,404.122,214.893Z" transform="translate(-118.156 -107.179)"/>
              <g id="Grupo_10" data-name="Grupo 10" transform="translate(126.906)">
                <path id="Trazado_8" data-name="Trazado 8" class="cls-3" d="M319.5,128.608c7.13,10.838,6.859,26.081,6.925,26.136.039-.065-13.4-.291-21.239-11.1-7.918-10.875-5.985-28.267-5.9-28.2C299.327,115.38,312.31,117.71,319.5,128.608Z" transform="translate(-296.187 -115.442)"/>
                <path id="Trazado_9" data-name="Trazado 9" class="cls-3" d="M319.108,156.063c8.586,9.572,10.439,24.53,10.511,24.578.03-.068-13.31,1.589-22.577-7.885-9.355-9.534-9.9-26.759-9.81-26.7C297.267,145.985,310.453,146.437,319.108,156.063Z" transform="translate(-297.225 -97.715)"/>
                <path id="Trazado_10" data-name="Trazado 10" class="cls-3" d="M322.624,183.044c9.826,8.19,13.72,22.656,13.8,22.7.021-.069-12.958,3.421-23.439-4.6-10.575-8.075-13.5-24.9-13.4-24.849C299.6,176.219,312.722,174.808,322.624,183.044Z" transform="translate(-295.864 -80.275)"/>
                <path id="Trazado_11" data-name="Trazado 11" class="cls-3" d="M329.815,209.342c10.854,6.709,16.7,20.475,16.787,20.5.011-.069-12.359,5.181-23.842-1.295-11.584-6.513-16.79-22.692-16.693-22.657C306.082,205.825,318.877,202.6,329.815,209.342Z" transform="translate(-292.104 -63.53)"/>
                <path id="Trazado_12" data-name="Trazado 12" class="cls-3" d="M340.532,234.624c11.68,5.142,19.4,18,19.491,18.021,0-.069-11.524,6.843-23.806,2-12.386-4.867-19.782-20.172-19.681-20.148C316.544,234.427,328.767,229.457,340.532,234.624Z" transform="translate(-286.04 -47.765)"/>
                <path id="Trazado_13" data-name="Trazado 13" class="cls-3" d="M354.634,258.478c12.305,3.508,21.816,15.254,21.91,15.262-.008-.069-10.461,8.383-23.341,5.243-12.992-3.155-22.482-17.35-22.375-17.337C330.825,261.576,342.237,254.954,354.634,258.478Z" transform="translate(-277.762 -33.188)"/>
                <path id="Trazado_14" data-name="Trazado 14" class="cls-3" d="M325.113,138.691c-8.893,9.122-8.73,24.849-8.654,24.777.035.06,13.2-.913,21.446-9.979,8.182-9,9.313-22.746,9.381-22.809C347.316,130.739,333.929,129.646,325.113,138.691Z" transform="translate(-286.094 -106.624)"/>
                <path id="Trazado_15" data-name="Trazado 15" class="cls-3" d="M324.629,166.7c-7.53,10.162-5.191,25.57-5.128,25.491.041.054,12.947-2.748,19.853-12.792,6.855-9.975,6.052-23.564,6.108-23.633C345.5,155.822,332.094,156.621,324.629,166.7Z" transform="translate(-284.549 -92.085)"/>
                <path id="Trazado_16" data-name="Trazado 16" class="cls-3" d="M328.167,194.041c-6.055,11.045-1.62,25.915-1.568,25.832.049.049,12.44-4.52,17.9-15.387,5.415-10.791,2.746-24.039,2.792-24.112C347.333,180.426,334.17,183.082,328.167,194.041Z" transform="translate(-281.146 -77.831)"/>
                <path id="Trazado_17" data-name="Trazado 17" class="cls-3" d="M335.558,220.321c-4.476,11.757,1.976,25.873,2.018,25.784.055.043,11.691-6.2,15.59-17.719,3.869-11.437-.6-24.155-.561-24.23C352.659,204.2,339.991,208.655,335.558,220.321Z" transform="translate(-275.936 -64.055)"/>
                <path id="Trazado_18" data-name="Trazado 18" class="cls-3" d="M346.606,245.154c-2.794,12.283,5.592,25.424,5.625,25.333.06.036,10.712-7.77,12.954-19.748,2.224-11.9-3.97-23.892-3.945-23.971C361.3,226.806,349.37,232.969,346.606,245.154Z" transform="translate(-268.952 -50.958)"/>
                <path id="Trazado_19" data-name="Trazado 19" class="cls-3" d="M361.138,268.156c-1.02,12.6,9.223,24.554,9.245,24.459.066.027,9.513-9.2,10.006-21.433.483-12.154-7.372-23.239-7.356-23.319C373.1,247.893,362.138,255.653,361.138,268.156Z" transform="translate(-260.246 -38.738)"/>
                <g id="Grupo_9" data-name="Grupo 9" transform="translate(28.59 37.725)">
                  <path id="Trazado_20" data-name="Trazado 20" class="cls-4" d="M426.681,385.962a1.574,1.574,0,0,1-1.02-.374A310.915,310.915,0,0,1,315.4,140.876a1.58,1.58,0,0,1,1.579-1.546h.033a1.578,1.578,0,0,1,1.546,1.612A307.766,307.766,0,0,0,427.7,383.178a1.58,1.58,0,0,1-1.022,2.784Z" transform="translate(-315.329 -139.33)"/>
                </g>
              </g>
              <g id="Grupo_14" data-name="Grupo 14" transform="translate(82.071 158.944)">
                <path id="Trazado_21" data-name="Trazado 21" class="cls-4" d="M338.937,264.185a.789.789,0,0,1-.785-.725l-.753-9.04a22.447,22.447,0,0,0-21.929-20.243,18.208,18.208,0,0,0-18.433,20.112l.752,9.041a.788.788,0,0,1-.722.851.807.807,0,0,1-.851-.722l-.752-9.04A19.783,19.783,0,0,1,315.469,232.6a24.054,24.054,0,0,1,23.5,21.691l.753,9.041a.79.79,0,0,1-.722.851C338.981,264.184,338.959,264.185,338.937,264.185Z" transform="translate(-253.301 -232.599)"/>
                <g id="Grupo_11" data-name="Grupo 11" transform="translate(89.473 25.607)">
                  <path id="Trazado_22" data-name="Trazado 22" class="cls-4" d="M340.877,248.814,325.393,393.1h35.733L347.641,248.814Z" transform="translate(-325.393 -248.814)"/>
                </g>
                <path id="Trazado_23" data-name="Trazado 23" class="cls-5" d="M284.221,248.814,268.737,393.1H358.21l15.484-144.288Z" transform="translate(-268.737 -223.207)"/>
                <g id="Grupo_12" data-name="Grupo 12" transform="translate(89.473 165.709)">
                  <path id="Trazado_24" data-name="Trazado 24" class="cls-6" d="M361.125,341.715l-17.866-4.187-17.866,4.187" transform="translate(-325.393 -337.528)"/>
                </g>
                <path id="Trazado_25" data-name="Trazado 25" class="cls-4" d="M334.565,264.185c-.024,0-.046,0-.066,0a.788.788,0,0,1-.722-.851l.752-9.041a18.208,18.208,0,0,0-18.435-20.112,22.446,22.446,0,0,0-21.929,20.243l-.752,9.04a.806.806,0,0,1-.851.722.788.788,0,0,1-.722-.851l.752-9.041a24.054,24.054,0,0,1,23.5-21.691A19.785,19.785,0,0,1,336.1,254.421l-.752,9.04A.791.791,0,0,1,334.565,264.185Z" transform="translate(-255.356 -232.599)"/>
                <ellipse id="Elipse_1" data-name="Elipse 1" class="cls-7" cx="25.61" cy="24.663" rx="25.61" ry="24.663" transform="matrix(0.714, -0.7, 0.7, 0.714, 14.923, 93.979)"/>
                <g id="Grupo_13" data-name="Grupo 13" class="cls-8" transform="translate(0 49.349)">
                  <path id="Trazado_26" data-name="Trazado 26" class="cls-9" d="M281.673,263.848,268.737,384.393h46.141l-5-120.546Z" transform="translate(-268.737 -263.848)"/>
                </g>
              </g>
              <g id="Grupo_17" data-name="Grupo 17" transform="translate(29.84 179.144)">
                <path id="Trazado_27" data-name="Trazado 27" class="cls-4" d="M281.279,268.608a.789.789,0,0,1-.786-.733l-.468-6.518c-.567-7.934-6.529-14.389-13.291-14.389a10.338,10.338,0,0,0-7.62,3.386,14.426,14.426,0,0,0-3.508,10.889l.466,6.519a.79.79,0,1,1-1.576.111l-.466-6.518a16.005,16.005,0,0,1,3.929-12.078,11.9,11.9,0,0,1,8.774-3.888c7.572,0,14.242,7.113,14.867,15.856l.467,6.516a.793.793,0,0,1-.731.845C281.316,268.608,281.3,268.608,281.279,268.608Z" transform="translate(-224.813 -245.39)"/>
                <g id="Grupo_15" data-name="Grupo 15" transform="translate(65.49 20.403)">
                  <path id="Trazado_28" data-name="Trazado 28" class="cls-4" d="M282.285,258.31l-5.3,129.292H303.45L291.367,258.31Z" transform="translate(-276.982 -258.31)"/>
                </g>
                <path id="Trazado_29" data-name="Trazado 29" class="cls-10" d="M244.937,258.31,235.512,387.6H301l5.3-129.292Z" transform="translate(-235.512 -237.906)"/>
                <g id="Grupo_16" data-name="Grupo 16" transform="translate(65.49 145.943)">
                  <path id="Trazado_30" data-name="Trazado 30" class="cls-6" d="M303.45,341.555,290.216,337.8l-13.234,3.751" transform="translate(-276.982 -337.803)"/>
                </g>
                <path id="Trazado_31" data-name="Trazado 31" class="cls-4" d="M278.569,268.608c-.021,0-.038,0-.058,0a.793.793,0,0,1-.731-.845l.468-6.518a14.431,14.431,0,0,0-3.511-10.89,10.341,10.341,0,0,0-7.617-3.384c-6.761,0-12.726,6.454-13.292,14.389l-.466,6.516a.806.806,0,0,1-.843.733.791.791,0,0,1-.733-.843l.466-6.518c.627-8.743,7.3-15.856,14.869-15.856a11.908,11.908,0,0,1,8.773,3.888,16.006,16.006,0,0,1,3.931,12.08l-.467,6.518A.789.789,0,0,1,278.569,268.608Z" transform="translate(-226.088 -245.39)"/>
                <path id="Trazado_32" data-name="Trazado 32" class="cls-4" d="M263.983,322.675A18.051,18.051,0,0,1,245.817,303.8a19.723,19.723,0,0,1,19.527-18.818,18.053,18.053,0,0,1,18.168,18.877l-.79-.03.79.03A19.725,19.725,0,0,1,263.983,322.675Zm1.361-36.116a18.132,18.132,0,0,0-17.95,17.3A16.477,16.477,0,0,0,263.983,321.1a18.132,18.132,0,0,0,17.95-17.3,16.472,16.472,0,0,0-16.588-17.239Z" transform="translate(-229.551 -222.458)"/>
              </g>
              <g id="Grupo_21" data-name="Grupo 21" transform="translate(287.941 195.933)">
                <path id="Trazado_33" data-name="Trazado 33" class="cls-4" d="M442.736,276.8c-.019,0-.038,0-.057,0a.792.792,0,0,1-.733-.845l.414-5.785a12.71,12.71,0,0,0-3.091-9.594,9.088,9.088,0,0,0-6.693-2.974c-5.954,0-11.2,5.688-11.7,12.683l-.414,5.783a.8.8,0,0,1-.843.731.789.789,0,0,1-.733-.845l.414-5.785c.559-7.8,6.514-14.147,13.28-14.147a10.646,10.646,0,0,1,7.849,3.479,14.285,14.285,0,0,1,3.511,10.783l-.414,5.783A.789.789,0,0,1,442.736,276.8Z" transform="translate(-388.179 -256.021)"/>
                <g id="Grupo_18" data-name="Grupo 18" transform="translate(0 18.191)">
                  <path id="Trazado_34" data-name="Trazado 34" class="cls-4" d="M418.219,267.54l4.706,114.715H399.44L410.16,267.54Z" transform="translate(-399.44 -267.54)"/>
                </g>
                <path id="Trazado_35" data-name="Trazado 35" class="cls-3" d="M465.781,267.54l8.362,114.715H416.036L411.331,267.54Z" transform="translate(-392.552 -249.349)"/>
                <g id="Grupo_19" data-name="Grupo 19" transform="translate(0 129.577)">
                  <path id="Trazado_36" data-name="Trazado 36" class="cls-6" d="M399.44,341.4l11.742-3.329,11.742,3.329" transform="translate(-399.44 -338.071)"/>
                </g>
                <path id="Trazado_37" data-name="Trazado 37" class="cls-4" d="M445.14,276.8a.789.789,0,0,1-.786-.733l-.414-5.785c-.5-6.993-5.752-12.681-11.705-12.681a9.09,9.09,0,0,0-6.694,2.974,12.71,12.71,0,0,0-3.091,9.594l.415,5.785a.79.79,0,1,1-1.576.114l-.415-5.783a14.29,14.29,0,0,1,3.511-10.783,10.647,10.647,0,0,1,7.85-3.479c6.764,0,12.721,6.347,13.281,14.147l.414,5.785a.792.792,0,0,1-.733.845C445.178,276.8,445.159,276.8,445.14,276.8Z" transform="translate(-387.049 -256.021)"/>
                <path id="Trazado_38" data-name="Trazado 38" class="cls-10" d="M438.151,324.771a17.593,17.593,0,0,1-17.416-16.784h0a16.107,16.107,0,0,1,16.209-16.84,17.589,17.589,0,0,1,17.414,16.781,16.107,16.107,0,0,1-16.208,16.843Zm-15.837-16.843a16,16,0,0,0,15.837,15.263,14.526,14.526,0,0,0,14.629-15.2,15.992,15.992,0,0,0-15.835-15.26,14.526,14.526,0,0,0-14.63,15.2Z" transform="translate(-387.111 -235.674)"/>
                <g id="Grupo_20" data-name="Grupo 20" class="cls-8" transform="translate(32.994 18.191)">
                  <rect id="Rectángulo_7" data-name="Rectángulo 7" class="cls-9" width="23.949" height="114.715"/>
                </g>
              </g>
              <g id="Grupo_30" data-name="Grupo 30" transform="translate(215.095 49.287)">
                <g id="Grupo_22" data-name="Grupo 22" transform="translate(10.164)">
                  <rect id="Rectángulo_8" data-name="Rectángulo 8" class="cls-11" width="113.642" height="279.552" rx="6.951"/>
                </g>
                <g id="Grupo_23" data-name="Grupo 23">
                  <rect id="Rectángulo_9" data-name="Rectángulo 9" class="cls-4" width="113.642" height="279.552" rx="6.951"/>
                </g>
                <g id="Grupo_24" data-name="Grupo 24" transform="translate(6.645 6.645)">
                  <rect id="Rectángulo_10" data-name="Rectángulo 10" class="cls-12" width="100.352" height="240.487" rx="2.743"/>
                </g>
                <g id="Grupo_25" data-name="Grupo 25" transform="translate(6.645 6.645)">
                  <path id="Trazado_39" data-name="Trazado 39" class="cls-9" d="M361.853,150.859a4.333,4.333,0,0,0-4.333,4.332v10.5h0a10.035,10.035,0,0,0,20.071,0,10.035,10.035,0,0,0,20.071,0,10.035,10.035,0,0,0,20.071,0,10.034,10.034,0,1,0,20.069,0,10.035,10.035,0,0,0,20.071,0h0V150.859Z" transform="translate(-357.52 -150.859)"/>
                </g>
                <g id="Grupo_26" data-name="Grupo 26" transform="translate(6.645 123.807)">
                  <path id="Trazado_40" data-name="Trazado 40" class="cls-9" d="M357.52,234.718V280.7L457.872,302.88V242.148Z" transform="translate(-357.52 -234.718)"/>
                </g>
                <g id="Grupo_27" data-name="Grupo 27" transform="translate(117.765 42.936)">
                  <path id="Trazado_41" data-name="Trazado 41" class="cls-4" d="M428.935,173.839a1.053,1.053,0,0,0-1.052,1.05v27.338a1.054,1.054,0,0,0,1.052,1.052h1.05v-29.44Z" transform="translate(-427.883 -173.839)"/>
                </g>
                <g id="Grupo_28" data-name="Grupo 28" transform="translate(118.817 42.936)">
                  <path id="Trazado_42" data-name="Trazado 42" class="cls-13" d="M429.6,203.279h0a1.054,1.054,0,0,1-1.05-1.052V174.889a1.053,1.053,0,0,1,1.05-1.05h0a1.053,1.053,0,0,1,1.052,1.05v27.338A1.054,1.054,0,0,1,429.6,203.279Z" transform="translate(-428.549 -173.839)"/>
                </g>
                <g id="Grupo_29" data-name="Grupo 29" transform="translate(48.889 252.935)">
                  <path id="Trazado_43" data-name="Trazado 43" class="cls-11" d="M396.279,331.715c0,4.635-2.688,8.392-6,8.392s-6-3.757-6-8.392,2.688-8.391,6-8.391S396.279,327.082,396.279,331.715Z" transform="translate(-384.27 -323.325)"/>
                </g>
                <path id="Trazado_44" data-name="Trazado 44" class="cls-14" d="M457.872,194.1,357.52,237.74V217.5l100.352-43.636Z" transform="translate(-350.875 -130.89)"/>
                <path id="Trazado_45" data-name="Trazado 45" class="cls-14" d="M457.872,278.187,357.52,321.823V257.946l100.352-43.636Z" transform="translate(-350.875 -121.524)"/>
                <path id="Trazado_46" data-name="Trazado 46" class="cls-14" d="M457.872,198.56,357.52,242.2V234.31l100.352-43.636Z" transform="translate(-350.875 -128.286)"/>
              </g>
              <g id="Grupo_31" data-name="Grupo 31" transform="translate(206.376 51.584)">
                <path id="Trazado_47" data-name="Trazado 47" class="cls-15" d="M348.194,160.922c-1.755,5.8.957,10.5,6.06,10.5s10.658-4.7,12.415-10.5Z" transform="translate(-347.66 -145.03)"/>
                <path id="Trazado_48" data-name="Trazado 48" class="cls-15" d="M394.985,160.922c-1.755,5.8.957,10.5,6.06,10.5s10.658-4.7,12.413-10.5Z" transform="translate(-320.556 -145.03)"/>
                <path id="Trazado_49" data-name="Trazado 49" class="cls-16" d="M359.892,160.922c-1.756,5.8.957,10.5,6.058,10.5s10.66-4.7,12.414-10.5Z" transform="translate(-340.884 -145.03)"/>
                <path id="Trazado_50" data-name="Trazado 50" class="cls-15" d="M371.589,160.922c-1.755,5.8.959,10.5,6.06,10.5s10.66-4.7,12.414-10.5Z" transform="translate(-334.108 -145.03)"/>
                <path id="Trazado_51" data-name="Trazado 51" class="cls-16" d="M383.287,160.922c-1.755,5.8.959,10.5,6.06,10.5s10.66-4.7,12.414-10.5Z" transform="translate(-327.332 -145.03)"/>
                <path id="Trazado_52" data-name="Trazado 52" class="cls-15" d="M366.471,166.751H348l18.474-15.892h18.474Z" transform="translate(-347.464 -150.859)"/>
                <path id="Trazado_53" data-name="Trazado 53" class="cls-16" d="M359.7,166.751h18.474l18.474-15.892H378.169Z" transform="translate(-340.688 -150.859)"/>
                <path id="Trazado_54" data-name="Trazado 54" class="cls-15" d="M389.867,166.751H371.393l18.474-15.892H408.34Z" transform="translate(-333.913 -150.859)"/>
                <path id="Trazado_55" data-name="Trazado 55" class="cls-15" d="M413.262,166.751H394.789l18.474-15.892h18.473Z" transform="translate(-320.361 -150.859)"/>
                <path id="Trazado_56" data-name="Trazado 56" class="cls-16" d="M383.091,166.751h18.474l18.474-15.892H401.565Z" transform="translate(-327.137 -150.859)"/>
              </g>
              <g id="Grupo_32" data-name="Grupo 32" transform="translate(205.441 51.584)">
                <path id="Trazado_57" data-name="Trazado 57" class="cls-17" d="M347.6,160.922c-1.755,5.8.959,10.5,6.06,10.5s10.66-4.7,12.414-10.5Z" transform="translate(-347.066 -145.03)"/>
                <path id="Trazado_58" data-name="Trazado 58" class="cls-17" d="M394.391,160.922c-1.755,5.8.959,10.5,6.06,10.5s10.66-4.7,12.414-10.5Z" transform="translate(-319.962 -145.03)"/>
                <path id="Trazado_59" data-name="Trazado 59" class="cls-7" d="M359.3,160.922c-1.754,5.8.959,10.5,6.06,10.5s10.66-4.7,12.414-10.5Z" transform="translate(-340.29 -145.03)"/>
                <path id="Trazado_60" data-name="Trazado 60" class="cls-17" d="M371,160.922c-1.754,5.8.959,10.5,6.06,10.5s10.658-4.7,12.414-10.5Z" transform="translate(-333.514 -145.03)"/>
                <path id="Trazado_61" data-name="Trazado 61" class="cls-7" d="M382.694,160.922c-1.756,5.8.957,10.5,6.058,10.5s10.66-4.7,12.414-10.5Z" transform="translate(-326.738 -145.03)"/>
                <path id="Trazado_62" data-name="Trazado 62" class="cls-10" d="M365.878,166.751H347.4l18.474-15.892h18.474Z" transform="translate(-346.87 -150.859)"/>
                <path id="Trazado_63" data-name="Trazado 63" class="cls-18" d="M359.1,166.751h18.474l18.474-15.892H377.576Z" transform="translate(-340.094 -150.859)"/>
                <path id="Trazado_64" data-name="Trazado 64" class="cls-10" d="M389.273,166.751H370.8l18.474-15.892h18.474Z" transform="translate(-333.318 -150.859)"/>
                <path id="Trazado_65" data-name="Trazado 65" class="cls-10" d="M412.669,166.751H394.2l18.474-15.892h18.473Z" transform="translate(-319.767 -150.859)"/>
                <path id="Trazado_66" data-name="Trazado 66" class="cls-18" d="M382.5,166.751h18.474l18.474-15.892H400.971Z" transform="translate(-326.543 -150.859)"/>
              </g>
              <path id="Trazado_67" data-name="Trazado 67" class="cls-19" d="M370.05,235.49,310.7,209.729l-27.073-7.476v13.12l15.827,9.163,27.489,50.515,45.607-4.284,128.126,39.386V245.161Z" transform="translate(-178.271 -79.237)"/>
              <path id="Trazado_68" data-name="Trazado 68" class="cls-20" d="M261.141,230.108l2.059-2.967,9.845-9.945,7.722,11.282-10.526,9.6a6.084,6.084,0,0,1-6.322,1.17h0A6.087,6.087,0,0,1,261.141,230.108Z" transform="translate(-191.601 -68.85)"/>
              <path id="Trazado_69" data-name="Trazado 69" class="cls-20" d="M271.879,241.007l-1.218-3.4-2.367-13.793,13.67.276,1.69,14.144a6.088,6.088,0,0,1-2.724,5.824h0A6.086,6.086,0,0,1,271.879,241.007Z" transform="translate(-186.852 -65.772)"/>
              <path id="Trazado_70" data-name="Trazado 70" class="cls-19" d="M268.593,204.752l2.5,12.7,21.242-2.083v-13.12Z" transform="translate(-186.683 -75.472)"/>
              <g id="Grupo_37" data-name="Grupo 37" transform="translate(41.523 96.358)">
                <g id="Grupo_33" data-name="Grupo 33" transform="translate(0 0)">
                  <rect id="Rectángulo_11" data-name="Rectángulo 11" class="cls-12" width="55.815" height="94.103" rx="2.006" transform="translate(0 44.973) rotate(-53.684)"/>
                </g>
                <path id="Rectángulo_12" data-name="Rectángulo 12" class="cls-5" d="M1.681,0h17.7a1.68,1.68,0,0,1,1.68,1.68v11.4a1.681,1.681,0,0,1-1.681,1.681H1.681A1.681,1.681,0,0,1,0,13.082V1.681A1.681,1.681,0,0,1,1.681,0Z" transform="translate(35.069 10.891) rotate(36.316)"/>
                <g id="Grupo_34" data-name="Grupo 34" transform="translate(11.797 27.5)">
                  <rect id="Rectángulo_13" data-name="Rectángulo 13" class="cls-5" width="17.37" height="4.212" transform="matrix(0.806, 0.592, -0.592, 0.806, 11.065, 0)"/>
                  <rect id="Rectángulo_14" data-name="Rectángulo 14" class="cls-5" width="17.37" height="4.212" transform="matrix(0.806, 0.592, -0.592, 0.806, 27.338, 11.961)"/>
                  <rect id="Rectángulo_15" data-name="Rectángulo 15" class="cls-10" width="25.502" height="6.152" transform="matrix(0.806, 0.592, -0.592, 0.806, 3.643, 10.097)"/>
                  <rect id="Rectángulo_16" data-name="Rectángulo 16" class="cls-5" width="9.238" height="6.152" transform="matrix(0.806, 0.592, -0.592, 0.806, 26.469, 26.875)"/>
                  <rect id="Rectángulo_17" data-name="Rectángulo 17" class="cls-5" width="17.37" height="4.212" transform="translate(43.611 23.922) rotate(36.316)"/>
                  <rect id="Rectángulo_18" data-name="Rectángulo 18" class="cls-5" width="17.37" height="4.212" transform="matrix(0.806, 0.592, -0.592, 0.806, 59.885, 35.883)"/>
                </g>
                <g id="Grupo_35" data-name="Grupo 35" transform="translate(64.093 76.651)">
                  <path id="Trazado_71" data-name="Trazado 71" class="cls-11" d="M295.262,242.14a6.516,6.516,0,1,1-1.391-9.111A6.517,6.517,0,0,1,295.262,242.14Z" transform="translate(-283.495 -231.764)"/>
                </g>
                <g id="Grupo_36" data-name="Grupo 36" transform="translate(56.928 71.385)">
                  <path id="Trazado_72" data-name="Trazado 72" class="cls-4" d="M290.725,238.8a6.517,6.517,0,1,1-1.391-9.111A6.519,6.519,0,0,1,290.725,238.8Z" transform="translate(-278.958 -228.429)"/>
                </g>
              </g>
              <path id="Trazado_73" data-name="Trazado 73" class="cls-19" d="M321.722,231.052l-22.615-3.285-13.433-3.926-3.59-.4a6.087,6.087,0,0,0-2.675,11.8l13.45,4.689L331.75,262.8Z" transform="translate(-182.826 -66.695)"/>
              <path id="Trazado_74" data-name="Trazado 74" class="cls-21" d="M285.063,226.738l-1.251,5.523a1.937,1.937,0,0,1-2.494,1.413l-1.533-.5a4.566,4.566,0,0,1-3.031-5.339h0a4.565,4.565,0,0,1,4.7-3.556l1.822.1A1.937,1.937,0,0,1,285.063,226.738Z" transform="translate(-182.039 -65.125)"/>
              <path id="Trazado_75" data-name="Trazado 75" class="cls-20" d="M412.522,228.79l4.634,63.27,8.852,2.726v-65Z" transform="translate(-103.776 -65.565)"/>
              <g id="Grupo_39" data-name="Grupo 39" transform="translate(179.107 90.719)">
                <rect id="Rectángulo_19" data-name="Rectángulo 19" class="cls-22" width="56.729" height="45.924" rx="5.882" transform="translate(8.166)"/>
                <path id="Trazado_76" data-name="Trazado 76" class="cls-22" d="M356.56,203.485l7.911,16.078h5.716V202.719Z" transform="translate(-315.09 -164.048)"/>
                <rect id="Rectángulo_20" data-name="Rectángulo 20" class="cls-10" width="59.179" height="45.924" rx="5.882"/>
                <path id="Trazado_77" data-name="Trazado 77" class="cls-10" d="M351.389,203.485l16.078,16.078V202.719Z" transform="translate(-318.085 -164.048)"/>
                <g id="Grupo_38" data-name="Grupo 38" transform="translate(14.96 7.997)">
                  <path id="Trazado_78" data-name="Trazado 78" class="cls-7" d="M353.8,190.673a7.223,7.223,0,0,1-.583,2.936,7.331,7.331,0,0,1-1.548,2.28,6.861,6.861,0,0,1-2.243,1.478,6.945,6.945,0,0,1-2.663.523,7.324,7.324,0,0,1-2.8-.523,6.522,6.522,0,0,1-2.211-1.478,6.751,6.751,0,0,1-1.456-2.28,7.9,7.9,0,0,1-.524-2.936,8.317,8.317,0,0,1,.524-3.026,6.8,6.8,0,0,1,1.456-2.32,6.551,6.551,0,0,1,2.211-1.5,7.211,7.211,0,0,1,2.8-.532,7.351,7.351,0,0,1,2.824.532,6.5,6.5,0,0,1,2.231,1.5,6.805,6.805,0,0,1,1.458,2.32A8.385,8.385,0,0,1,353.8,190.673Zm9.207-6.17a3.63,3.63,0,0,1,.744-.633,2.207,2.207,0,0,1,1.225-.292h4.542l-22.07,28.4a2.485,2.485,0,0,1-.755.635,2.227,2.227,0,0,1-1.1.251h-4.664Zm-13.991,6.17a7.139,7.139,0,0,0-.171-1.7,3.052,3.052,0,0,0-.474-1.075,1.62,1.62,0,0,0-.712-.562,2.446,2.446,0,0,0-.9-.163,2.366,2.366,0,0,0-.886.163,1.513,1.513,0,0,0-.682.562,3.143,3.143,0,0,0-.442,1.075,7.458,7.458,0,0,0-.161,1.7,6.762,6.762,0,0,0,.161,1.609,2.915,2.915,0,0,0,.442,1.025,1.571,1.571,0,0,0,.682.542,2.364,2.364,0,0,0,.886.161,2.444,2.444,0,0,0,.9-.161,1.687,1.687,0,0,0,.712-.542,2.838,2.838,0,0,0,.474-1.025A6.475,6.475,0,0,0,349.021,190.673Zm21.628,15.317a7.282,7.282,0,0,1-2.13,5.237,6.856,6.856,0,0,1-2.241,1.478,6.953,6.953,0,0,1-2.664.523,7.316,7.316,0,0,1-2.8-.523,6.528,6.528,0,0,1-2.212-1.478,6.748,6.748,0,0,1-1.456-2.291,8,8,0,0,1-.523-2.945,8.341,8.341,0,0,1,.523-3.024,6.841,6.841,0,0,1,1.456-2.323,6.551,6.551,0,0,1,2.212-1.5,7.2,7.2,0,0,1,2.8-.534,7.366,7.366,0,0,1,2.825.534,6.485,6.485,0,0,1,2.23,1.5,6.8,6.8,0,0,1,1.458,2.323A8.343,8.343,0,0,1,370.649,205.99Zm-4.784,0a6.955,6.955,0,0,0-.171-1.677,3.023,3.023,0,0,0-.472-1.075,1.639,1.639,0,0,0-.714-.564,2.439,2.439,0,0,0-.9-.161,2.362,2.362,0,0,0-.884.161,1.511,1.511,0,0,0-.682.564,3.141,3.141,0,0,0-.442,1.075,7.259,7.259,0,0,0-.161,1.677,6.679,6.679,0,0,0,.161,1.609,2.914,2.914,0,0,0,.442,1.025,1.542,1.542,0,0,0,.682.542,2.331,2.331,0,0,0,.884.161,2.407,2.407,0,0,0,.9-.161,1.68,1.68,0,0,0,.714-.542,2.812,2.812,0,0,0,.472-1.025A6.4,6.4,0,0,0,365.865,205.99Z" transform="translate(-339.773 -183.296)"/>
                </g>
              </g>
              <g id="Grupo_41" data-name="Grupo 41" transform="translate(87.709 56.235)">
                <path id="Trazado_79" data-name="Trazado 79" class="cls-22" d="M302.814,174.505l-14.276,14.276h-4.811l4.811-14.956Z" transform="translate(-265.663 -142.918)"/>
                <rect id="Rectángulo_21" data-name="Rectángulo 21" class="cls-22" width="60.004" height="33.904" rx="5.223" transform="translate(7.251)"/>
                <rect id="Rectángulo_22" data-name="Rectángulo 22" class="cls-10" width="62.179" height="33.904" rx="5.223"/>
                <path id="Trazado_80" data-name="Trazado 80" class="cls-10" d="M298,174.505l-14.276,14.276V173.826Z" transform="translate(-265.663 -142.918)"/>
                <g id="Grupo_40" data-name="Grupo 40" transform="translate(8.792 9.797)">
                  <path id="Trazado_81" data-name="Trazado 81" class="cls-7" d="M286.679,163.455a1.224,1.224,0,0,1-.3.347.684.684,0,0,1-.407.115,1,1,0,0,1-.477-.141l-.576-.311a4.839,4.839,0,0,0-.734-.313,2.945,2.945,0,0,0-.943-.139,2.031,2.031,0,0,0-1.36.389,1.32,1.32,0,0,0-.447,1.052.97.97,0,0,0,.27.7,2.31,2.31,0,0,0,.706.48,7.515,7.515,0,0,0,1,.37q.561.168,1.148.376a10.106,10.106,0,0,1,1.148.485,3.882,3.882,0,0,1,1,.711,3.3,3.3,0,0,1,.706,1.053,3.725,3.725,0,0,1,.27,1.494,4.866,4.866,0,0,1-.336,1.816,4.238,4.238,0,0,1-.976,1.475,4.53,4.53,0,0,1-1.576.99,5.905,5.905,0,0,1-2.129.36,6.8,6.8,0,0,1-1.331-.134,7.964,7.964,0,0,1-1.311-.379,7.657,7.657,0,0,1-1.192-.581,5.09,5.09,0,0,1-.971-.75l.962-1.519a.776.776,0,0,1,.3-.278.84.84,0,0,1,.414-.106,1.1,1.1,0,0,1,.581.183q.294.182.663.4a5.278,5.278,0,0,0,.851.4,3.183,3.183,0,0,0,1.134.183,2.162,2.162,0,0,0,1.374-.39,1.481,1.481,0,0,0,.491-1.235,1.164,1.164,0,0,0-.27-.8,2.108,2.108,0,0,0-.706-.51,6.61,6.61,0,0,0-.995-.355q-.559-.154-1.143-.341a8.2,8.2,0,0,1-1.143-.461,3.585,3.585,0,0,1-.995-.722,3.371,3.371,0,0,1-.707-1.113,4.448,4.448,0,0,1-.269-1.649,3.911,3.911,0,0,1,.317-1.538,3.978,3.978,0,0,1,.932-1.336,4.592,4.592,0,0,1,1.51-.936,5.571,5.571,0,0,1,2.047-.351,7.607,7.607,0,0,1,1.254.1,6.507,6.507,0,0,1,1.158.3,6.387,6.387,0,0,1,1.023.471,4.74,4.74,0,0,1,.851.621Z" transform="translate(-277.856 -160.458)"/>
                  <path id="Trazado_82" data-name="Trazado 82" class="cls-7" d="M298.547,174.558h-2.519a1.15,1.15,0,0,1-.7-.2,1.015,1.015,0,0,1-.381-.5l-.826-2.441H288.8l-.827,2.441a1.113,1.113,0,0,1-1.057.7H284.38l5.422-14h3.324Zm-9-5.354h3.825l-1.287-3.834q-.126-.365-.294-.861t-.332-1.071c-.1.39-.208.753-.316,1.087s-.212.621-.308.864Z" transform="translate(-274.077 -160.402)"/>
                  <path id="Trazado_83" data-name="Trazado 83" class="cls-7" d="M297.318,171.964h5.189v2.595h-8.438v-14h3.249Z" transform="translate(-268.465 -160.402)"/>
                  <path id="Trazado_84" data-name="Trazado 84" class="cls-7" d="M309.4,160.555v2.5h-5.747v3.269h4.4v2.4h-4.4v3.335H309.4v2.5h-9.014v-14Z" transform="translate(-264.806 -160.402)"/>
                </g>
              </g>
              <path id="Trazado_85" data-name="Trazado 85" class="cls-23" d="M594.218,347.064h-369.7a3.449,3.449,0,0,1-3.436-3.443h0a3.449,3.449,0,0,1,3.436-3.443h369.7a3.449,3.449,0,0,1,3.434,3.443h0A3.449,3.449,0,0,1,594.218,347.064Z" transform="translate(-214.031 -11.34)"/>
            </g>
          </g>
        </g>
      </g>
    </g>
  </g>
</svg>
